<svg width="16" height="22" viewBox="0 0 16 22" fill="none" xmlns="http://www.w3.org/2000/svg">
<path d="M4 5.00006V3.00006C4 2.46963 4.21071 1.96092 4.58579 1.58585C4.96086 1.21077 5.46957 1.00006 6 1.00006H10C10.5304 1.00006 11.0391 1.21077 11.4142 1.58585C11.7893 1.96092 12 2.46963 12 3.00006V5.00006M15 5.00006V19.0001C15 19.5305 14.7893 20.0392 14.4142 20.4143C14.0391 20.7893 13.5304 21.0001 13 21.0001H3C2.46957 21.0001 1.96086 20.7893 1.58579 20.4143C1.21071 20.0392 1 19.5305 1 19.0001V5.00006H15Z" stroke="#98A9BC" stroke-width="2" stroke-linecap="round" stroke-linejoin="round"/>
</svg>
