<svg width="16" height="16" viewBox="0 0 16 16" fill="none" xmlns="http://www.w3.org/2000/svg">
<path d="M6.31258 11.9596C6.68013 11.592 6.68013 10.9961 6.31258 10.6286C5.94503 10.261 5.34911 10.261 4.98155 10.6286L1.21685 14.3933C0.849294 14.7608 0.849294 15.3567 1.21685 15.7243C1.5844 16.0919 2.18032 16.0919 2.54787 15.7243L6.31258 11.9596Z" fill="#ffffff"/>
<path d="M9.41176 11.2941C6.81278 11.2941 4.70588 9.18722 4.70588 6.58824C4.70588 3.98925 6.81278 1.88235 9.41176 1.88235C12.0108 1.88235 14.1176 3.98925 14.1176 6.58824C14.1176 9.18722 12.0108 11.2941 9.41176 11.2941ZM9.41176 13.1765C13.0503 13.1765 16 10.2268 16 6.58824C16 2.94965 13.0503 0 9.41176 0C5.77318 0 2.82353 2.94965 2.82353 6.58824C2.82353 10.2268 5.77318 13.1765 9.41176 13.1765Z" fill="#ffffff"/>
</svg>
